ffmpeg started on 2026-01-13 at 11:36:02
Report written to "D:\Convert\FFMetrics\reports\psnr_report-6.txt"
Log level: 32
Command line:
ffmpeg -hide_banner -nostdin -r 24000/1001 -i "F:\\Convert\\files\\[DC] Make Heroine ga Oosugiru - 07_Telegram_HEVC(80).mkv" -r 24000/1001 -i "F:\\Convert\\files\\[DC] Make Heroine ga Oosugiru - 07_Telegram.mp4" -lavfi "[0:v]settb=AVTB,setpts=PTS-STARTPTS,format=pix_fmts=yuv420p10le,fps=24000/1001,scale=1920:1080:flags=lanczos:param0=3:out_range=limited:out_color_matrix=bt709:out_chroma_loc=left,setsar=1/1,setdar=(1920/1080)*(1/1),colorspace=format=yuv420p10:range=tv:primaries=bt709:trc=bt709:space=bt709:fast=0[main];[1:v]settb=AVTB,setpts=PTS-STARTPTS,format=pix_fmts=yuv420p,fps=24000/1001,scale=1920:1080:flags=lanczos:param0=3:out_range=limited:out_color_matrix=bt709:out_chroma_loc=left,setsar=1.000,setdar=1.778,colorspace=format=yuv420p:range=tv:primaries=bt709:trc=bt709:space=bt709:fast=0[ref];[main][ref]psnr=eof_action=endall:stats_file='D\\:/Convert/FFMetrics/logs/psnr_logfile-6.txt'" -f null -
Input #0, matroska,webm, from 'F:\Convert\files\[DC] Make Heroine ga Oosugiru - 07_Telegram_HEVC(80).mkv':
  Metadata:
    COMPATIBLE_BRANDS: isomiso2avc1mp41
    MAJOR_BRAND     : isom
    MINOR_VERSION   : 512
    ENCODER         : Lavf61.7.100
  Duration: 00:24:06.79, start: -0.021000, bitrate: 1224 kb/s
  Stream #0:0: Video: hevc (Main 10), yuv420p10le(tv, bt709, progressive), 1920x1080 [SAR 1:1 DAR 16:9], 23.98 fps, 23.98 tbr, 1k tbn (default)
      Metadata:
        HANDLER_NAME    : VideoHandler
        VENDOR_ID       : [0][0][0][0]
        ENCODER         : Lavc61.19.100 libx265
        BPS             : 1027229
        DURATION        : 00:24:06.569708333
        NUMBER_OF_FRAMES: 34683
        NUMBER_OF_BYTES : 185744874
        _STATISTICS_WRITING_APP: mkvpropedit v94.0 ('Initiate') 64-bit
        _STATISTICS_WRITING_DATE_UTC: 2026-01-11 15:54:14
        _STATISTICS_TAGS: BPS DURATION NUMBER_OF_FRAMES NUMBER_OF_BYTES
  Stream #0:1: Audio: aac (LC), 48000 Hz, stereo, fltp (default)
      Metadata:
        HANDLER_NAME    : SoundHandler
        VENDOR_ID       : [0][0][0][0]
        ENCODER         : Lavc61.19.100 aac
        BPS             : 193194
        DURATION        : 00:24:06.784000000
        NUMBER_OF_FRAMES: 67819
        NUMBER_OF_BYTES : 34938755
        _STATISTICS_WRITING_APP: mkvpropedit v94.0 ('Initiate') 64-bit
        _STATISTICS_WRITING_DATE_UTC: 2026-01-11 15:54:14
        _STATISTICS_TAGS: BPS DURATION NUMBER_OF_FRAMES NUMBER_OF_BYTES
Input #1, mov,mp4,m4a,3gp,3g2,mj2, from 'F:\Convert\files\[DC] Make Heroine ga Oosugiru - 07_Telegram.mp4':
  Metadata:
    major_brand     : isom
    minor_version   : 512
    compatible_brands: isomiso2avc1mp41
    encoder         : Lavf60.16.100
  Duration: 00:24:06.74, start: 0.000000, bitrate: 3764 kb/s
  Stream #1:0[0x1](und): Video: h264 (High) (avc1 / 0x31637661), yuv420p(tv, bt709, progressive), 1920x1080 [SAR 1:1 DAR 16:9], 3616 kb/s, 23.98 fps, 23.98 tbr, 24k tbn (default)
      Metadata:
        handler_name    : VideoHandler
        vendor_id       : [0][0][0][0]
        encoder         : Lavc60.31.102 h264_qsv
  Stream #1:1[0x2](und): Audio: aac (HE-AACv2) (mp4a / 0x6134706D), 48000 Hz, stereo, fltp, 144 kb/s (default)
      Metadata:
        handler_name    : SoundHandler
        vendor_id       : [0][0][0][0]
Stream mapping:
  Stream #0:0 (hevc) -> settb:default
  Stream #1:0 (h264) -> settb:default
  psnr:default -> Stream #0:0 (wrapped_avframe)
  Stream #0:1 -> #0:1 (aac (native) -> pcm_s16le (native))
Output #0, null, to 'pipe:':
  Metadata:
    COMPATIBLE_BRANDS: isomiso2avc1mp41
    MAJOR_BRAND     : isom
    MINOR_VERSION   : 512
    encoder         : Lavf61.7.100
  Stream #0:0: Video: wrapped_avframe, yuv420p10le(tv, bt709, progressive), 1920x1080 [SAR 1:1 DAR 16:9], q=2-31, 200 kb/s, 23.98 fps, 23.98 tbn
      Metadata:
        encoder         : Lavc61.19.100 wrapped_avframe
  Stream #0:1: Audio: pcm_s16le, 48000 Hz, stereo, s16, 1536 kb/s (default)
      Metadata:
        HANDLER_NAME    : SoundHandler
        VENDOR_ID       : [0][0][0][0]
        _STATISTICS_TAGS: BPS DURATION NUMBER_OF_FRAMES NUMBER_OF_BYTES
        BPS             : 193194
        DURATION        : 00:24:06.784000000
        NUMBER_OF_FRAMES: 67819
        NUMBER_OF_BYTES : 34938755
        _STATISTICS_WRITING_APP: mkvpropedit v94.0 ('Initiate') 64-bit
        _STATISTICS_WRITING_DATE_UTC: 2026-01-11 15:54:14
        encoder         : Lavc61.19.100 pcm_s16le
frame=  119 fps=0.0 q=-0.0 size=N/A time=00:00:04.96 bitrate=N/A speed=9.56x    frame=  295 fps=286 q=-0.0 size=N/A time=00:00:12.30 bitrate=N/A speed=11.9x    frame=  471 fps=305 q=-0.0 size=N/A time=00:00:19.64 bitrate=N/A speed=12.7x    frame=  659 fps=321 q=-0.0 size=N/A time=00:00:27.48 bitrate=N/A speed=13.4x    frame=  855 fps=331 q=-0.0 size=N/A time=00:00:35.66 bitrate=N/A speed=13.8x    frame=  989 fps=320 q=-0.0 size=N/A time=00:00:41.24 bitrate=N/A speed=13.3x    frame= 1139 fps=316 q=-0.0 size=N/A time=00:00:47.50 bitrate=N/A speed=13.2x    frame= 1293 fps=314 q=-0.0 size=N/A time=00:00:53.92 bitrate=N/A speed=13.1x    frame= 1453 fps=313 q=-0.0 size=N/A time=00:01:00.60 bitrate=N/A speed=13.1x    frame= 1593 fps=309 q=-0.0 size=N/A time=00:01:06.44 bitrate=N/A speed=12.9x    frame= 1745 fps=308 q=-0.0 size=N/A time=00:01:12.78 bitrate=N/A speed=12.8x    frame= 1873 fps=303 q=-0.0 size=N/A time=00:01:18.11 bitrate=N/A speed=12.6x    frame= 2035 fps=304 q=-0.0 size=N/A time=00:01:24.87 bitrate=N/A speed=12.7x    frame= 2136 fps=296 q=-0.0 size=N/A time=00:01:29.08 bitrate=N/A speed=12.3x    frame= 2287 fps=296 q=-0.0 size=N/A time=00:01:35.38 bitrate=N/A speed=12.3x    frame= 2429 fps=295 q=-0.0 size=N/A time=00:01:41.30 bitrate=N/A speed=12.3x    frame= 2554 fps=292 q=-0.0 size=N/A time=00:01:46.52 bitrate=N/A speed=12.2x    frame= 2723 fps=293 q=-0.0 size=N/A time=00:01:53.57 bitrate=N/A speed=12.2x    frame= 2894 fps=295 q=-0.0 size=N/A time=00:02:00.70 bitrate=N/A speed=12.3x    frame= 3082 fps=299 q=-0.0 size=N/A time=00:02:08.54 bitrate=N/A speed=12.5x    frame= 3271 fps=302 q=-0.0 size=N/A time=00:02:16.42 bitrate=N/A speed=12.6x    frame= 3471 fps=306 q=-0.0 size=N/A time=00:02:24.76 bitrate=N/A speed=12.8x    frame= 3663 fps=309 q=-0.0 size=N/A time=00:02:32.77 bitrate=N/A speed=12.9x    frame= 3853 fps=312 q=-0.0 size=N/A time=00:02:40.70 bitrate=N/A speed=  13x    frame= 4021 fps=312 q=-0.0 size=N/A time=00:02:47.70 bitrate=N/A speed=  13x    frame= 4183 fps=312 q=-0.0 size=N/A time=00:02:54.46 bitrate=N/A speed=  13x    frame= 4380 fps=315 q=-0.0 size=N/A time=00:03:02.68 bitrate=N/A speed=13.1x    frame= 4571 fps=317 q=-0.0 size=N/A time=00:03:10.64 bitrate=N/A speed=13.2x    frame= 4765 fps=319 q=-0.0 size=N/A time=00:03:18.74 bitrate=N/A speed=13.3x    frame= 4955 fps=320 q=-0.0 size=N/A time=00:03:26.66 bitrate=N/A speed=13.4x    frame= 5137 fps=322 q=-0.0 size=N/A time=00:03:34.25 bitrate=N/A speed=13.4x    frame= 5322 fps=323 q=-0.0 size=N/A time=00:03:41.97 bitrate=N/A speed=13.5x    frame= 5514 fps=324 q=-0.0 size=N/A time=00:03:49.97 bitrate=N/A speed=13.5x    frame= 5707 fps=326 q=-0.0 size=N/A time=00:03:58.02 bitrate=N/A speed=13.6x    frame= 5877 fps=326 q=-0.0 size=N/A time=00:04:05.11 bitrate=N/A speed=13.6x    frame= 6054 fps=326 q=-0.0 size=N/A time=00:04:12.50 bitrate=N/A speed=13.6x    frame= 6244 fps=327 q=-0.0 size=N/A time=00:04:20.42 bitrate=N/A speed=13.6x    frame= 6431 fps=328 q=-0.0 size=N/A time=00:04:28.22 bitrate=N/A speed=13.7x    frame= 6575 fps=327 q=-0.0 size=N/A time=00:04:34.23 bitrate=N/A speed=13.6x    frame= 6768 fps=328 q=-0.0 size=N/A time=00:04:42.28 bitrate=N/A speed=13.7x    frame= 6962 fps=329 q=-0.0 size=N/A time=00:04:50.37 bitrate=N/A speed=13.7x    frame= 7136 fps=330 q=-0.0 size=N/A time=00:04:57.63 bitrate=N/A speed=13.7x    frame= 7310 fps=330 q=-0.0 size=N/A time=00:05:04.88 bitrate=N/A speed=13.8x    frame= 7487 fps=330 q=-0.0 size=N/A time=00:05:12.27 bitrate=N/A speed=13.8x    frame= 7657 fps=330 q=-0.0 size=N/A time=00:05:19.36 bitrate=N/A speed=13.8x    frame= 7840 fps=331 q=-0.0 size=N/A time=00:05:26.99 bitrate=N/A speed=13.8x    frame= 8030 fps=331 q=-0.0 size=N/A time=00:05:34.91 bitrate=N/A speed=13.8x    frame= 8215 fps=332 q=-0.0 size=N/A time=00:05:42.63 bitrate=N/A speed=13.8x    frame= 8415 fps=333 q=-0.0 size=N/A time=00:05:50.97 bitrate=N/A speed=13.9x    frame= 8604 fps=334 q=-0.0 size=N/A time=00:05:58.85 bitrate=N/A speed=13.9x    frame= 8792 fps=334 q=-0.0 size=N/A time=00:06:06.69 bitrate=N/A speed=13.9x    frame= 8957 fps=334 q=-0.0 size=N/A time=00:06:13.58 bitrate=N/A speed=13.9x    frame= 9105 fps=333 q=-0.0 size=N/A time=00:06:19.75 bitrate=N/A speed=13.9x    frame= 9292 fps=334 q=-0.0 size=N/A time=00:06:27.55 bitrate=N/A speed=13.9x    frame= 9474 fps=334 q=-0.0 size=N/A time=00:06:35.14 bitrate=N/A speed=13.9x    frame= 9657 fps=334 q=-0.0 size=N/A time=00:06:42.77 bitrate=N/A speed=13.9x    frame= 9848 fps=335 q=-0.0 size=N/A time=00:06:50.74 bitrate=N/A speed=  14x    frame=10032 fps=335 q=-0.0 size=N/A time=00:06:58.41 bitrate=N/A speed=  14x    frame=10215 fps=336 q=-0.0 size=N/A time=00:07:06.05 bitrate=N/A speed=  14x    frame=10394 fps=336 q=-0.0 size=N/A time=00:07:13.51 bitrate=N/A speed=  14x    frame=10590 fps=337 q=-0.0 size=N/A time=00:07:21.69 bitrate=N/A speed=  14x    frame=10775 fps=337 q=-0.0 size=N/A time=00:07:29.40 bitrate=N/A speed=14.1x    frame=10964 fps=337 q=-0.0 size=N/A time=00:07:37.29 bitrate=N/A speed=14.1x    frame=11142 fps=338 q=-0.0 size=N/A time=00:07:44.71 bitrate=N/A speed=14.1x    frame=11324 fps=338 q=-0.0 size=N/A time=00:07:52.30 bitrate=N/A speed=14.1x    frame=11473 fps=337 q=-0.0 size=N/A time=00:07:58.51 bitrate=N/A speed=14.1x    frame=11662 fps=337 q=-0.0 size=N/A time=00:08:06.40 bitrate=N/A speed=14.1x    frame=11851 fps=338 q=-0.0 size=N/A time=00:08:14.28 bitrate=N/A speed=14.1x    frame=12030 fps=338 q=-0.0 size=N/A time=00:08:21.75 bitrate=N/A speed=14.1x    frame=12211 fps=338 q=-0.0 size=N/A time=00:08:29.30 bitrate=N/A speed=14.1x    frame=12395 fps=339 q=-0.0 size=N/A time=00:08:36.97 bitrate=N/A speed=14.1x    frame=12586 fps=339 q=-0.0 size=N/A time=00:08:44.94 bitrate=N/A speed=14.1x    frame=12765 fps=339 q=-0.0 size=N/A time=00:08:52.40 bitrate=N/A speed=14.1x    frame=12872 fps=337 q=-0.0 size=N/A time=00:08:56.86 bitrate=N/A speed=14.1x    frame=13037 fps=337 q=-0.0 size=N/A time=00:09:03.75 bitrate=N/A speed=14.1x    frame=13230 fps=337 q=-0.0 size=N/A time=00:09:11.80 bitrate=N/A speed=14.1x    frame=13424 fps=338 q=-0.0 size=N/A time=00:09:19.89 bitrate=N/A speed=14.1x    frame=13603 fps=338 q=-0.0 size=N/A time=00:09:27.35 bitrate=N/A speed=14.1x    frame=13791 fps=338 q=-0.0 size=N/A time=00:09:35.19 bitrate=N/A speed=14.1x    frame=13979 fps=339 q=-0.0 size=N/A time=00:09:43.04 bitrate=N/A speed=14.1x    frame=14144 fps=338 q=-0.0 size=N/A time=00:09:49.92 bitrate=N/A speed=14.1x    frame=14322 fps=339 q=-0.0 size=N/A time=00:09:57.34 bitrate=N/A speed=14.1x    frame=14503 fps=339 q=-0.0 size=N/A time=00:10:04.89 bitrate=N/A speed=14.1x    frame=14686 fps=339 q=-0.0 size=N/A time=00:10:12.52 bitrate=N/A speed=14.1x    frame=14864 fps=339 q=-0.0 size=N/A time=00:10:19.95 bitrate=N/A speed=14.1x    frame=15054 fps=339 q=-0.0 size=N/A time=00:10:27.87 bitrate=N/A speed=14.2x    frame=15177 fps=338 q=-0.0 size=N/A time=00:10:33.00 bitrate=N/A speed=14.1x    frame=15332 fps=338 q=-0.0 size=N/A time=00:10:39.47 bitrate=N/A speed=14.1x    frame=15505 fps=338 q=-0.0 size=N/A time=00:10:46.68 bitrate=N/A speed=14.1x    frame=15705 fps=338 q=-0.0 size=N/A time=00:10:55.02 bitrate=N/A speed=14.1x    frame=15900 fps=339 q=-0.0 size=N/A time=00:11:03.16 bitrate=N/A speed=14.1x    frame=16089 fps=339 q=-0.0 size=N/A time=00:11:11.04 bitrate=N/A speed=14.1x    frame=16275 fps=339 q=-0.0 size=N/A time=00:11:18.80 bitrate=N/A speed=14.1x    frame=16456 fps=339 q=-0.0 size=N/A time=00:11:26.35 bitrate=N/A speed=14.2x    frame=16629 fps=339 q=-0.0 size=N/A time=00:11:33.56 bitrate=N/A speed=14.2x    frame=16812 fps=339 q=-0.0 size=N/A time=00:11:41.20 bitrate=N/A speed=14.2x    frame=16992 fps=340 q=-0.0 size=N/A time=00:11:48.70 bitrate=N/A speed=14.2x    frame=17176 fps=340 q=-0.0 size=N/A time=00:11:56.38 bitrate=N/A speed=14.2x    frame=17357 fps=340 q=-0.0 size=N/A time=00:12:03.93 bitrate=N/A speed=14.2x    frame=17550 fps=340 q=-0.0 size=N/A time=00:12:11.98 bitrate=N/A speed=14.2x    frame=17664 fps=339 q=-0.0 size=N/A time=00:12:16.73 bitrate=N/A speed=14.1x    frame=17845 fps=339 q=-0.0 size=N/A time=00:12:24.28 bitrate=N/A speed=14.1x    frame=18025 fps=339 q=-0.0 size=N/A time=00:12:31.79 bitrate=N/A speed=14.1x    frame=18202 fps=339 q=-0.0 size=N/A time=00:12:39.17 bitrate=N/A speed=14.1x    frame=18368 fps=339 q=-0.0 size=N/A time=00:12:46.09 bitrate=N/A speed=14.1x    frame=18553 fps=339 q=-0.0 size=N/A time=00:12:53.81 bitrate=N/A speed=14.1x    frame=18724 fps=339 q=-0.0 size=N/A time=00:13:00.94 bitrate=N/A speed=14.1x    frame=18910 fps=339 q=-0.0 size=N/A time=00:13:08.70 bitrate=N/A speed=14.2x    frame=19092 fps=339 q=-0.0 size=N/A time=00:13:16.29 bitrate=N/A speed=14.2x    frame=19266 fps=339 q=-0.0 size=N/A time=00:13:23.55 bitrate=N/A speed=14.2x    frame=19449 fps=340 q=-0.0 size=N/A time=00:13:31.18 bitrate=N/A speed=14.2x    frame=19633 fps=340 q=-0.0 size=N/A time=00:13:38.85 bitrate=N/A speed=14.2x    frame=19818 fps=340 q=-0.0 size=N/A time=00:13:46.57 bitrate=N/A speed=14.2x    frame=19990 fps=340 q=-0.0 size=N/A time=00:13:53.74 bitrate=N/A speed=14.2x    frame=20130 fps=339 q=-0.0 size=N/A time=00:13:59.58 bitrate=N/A speed=14.1x    frame=20314 fps=339 q=-0.0 size=N/A time=00:14:07.26 bitrate=N/A speed=14.2x    frame=20477 fps=339 q=-0.0 size=N/A time=00:14:14.06 bitrate=N/A speed=14.1x    frame=20649 fps=339 q=-0.0 size=N/A time=00:14:21.23 bitrate=N/A speed=14.1x    frame=20833 fps=339 q=-0.0 size=N/A time=00:14:28.90 bitrate=N/A speed=14.1x    frame=21014 fps=339 q=-0.0 size=N/A time=00:14:36.45 bitrate=N/A speed=14.2x    frame=21198 fps=339 q=-0.0 size=N/A time=00:14:44.13 bitrate=N/A speed=14.2x    frame=21378 fps=340 q=-0.0 size=N/A time=00:14:51.64 bitrate=N/A speed=14.2x    frame=21562 fps=340 q=-0.0 size=N/A time=00:14:59.31 bitrate=N/A speed=14.2x    frame=21750 fps=340 q=-0.0 size=N/A time=00:15:07.15 bitrate=N/A speed=14.2x    frame=21932 fps=340 q=-0.0 size=N/A time=00:15:14.74 bitrate=N/A speed=14.2x    frame=22113 fps=340 q=-0.0 size=N/A time=00:15:22.29 bitrate=N/A speed=14.2x    frame=22291 fps=340 q=-0.0 size=N/A time=00:15:29.72 bitrate=N/A speed=14.2x    frame=22432 fps=340 q=-0.0 size=N/A time=00:15:35.60 bitrate=N/A speed=14.2x    frame=22623 fps=340 q=-0.0 size=N/A time=00:15:43.56 bitrate=N/A speed=14.2x    frame=22805 fps=340 q=-0.0 size=N/A time=00:15:51.15 bitrate=N/A speed=14.2x    frame=22990 fps=340 q=-0.0 size=N/A time=00:15:58.87 bitrate=N/A speed=14.2x    frame=23179 fps=340 q=-0.0 size=N/A time=00:16:06.75 bitrate=N/A speed=14.2x    frame=23365 fps=340 q=-0.0 size=N/A time=00:16:14.51 bitrate=N/A speed=14.2x    frame=23554 fps=341 q=-0.0 size=N/A time=00:16:22.39 bitrate=N/A speed=14.2x    frame=23734 fps=341 q=-0.0 size=N/A time=00:16:29.90 bitrate=N/A speed=14.2x    frame=23916 fps=341 q=-0.0 size=N/A time=00:16:37.49 bitrate=N/A speed=14.2x    frame=24106 fps=341 q=-0.0 size=N/A time=00:16:45.42 bitrate=N/A speed=14.2x    frame=24286 fps=341 q=-0.0 size=N/A time=00:16:52.92 bitrate=N/A speed=14.2x    frame=24480 fps=341 q=-0.0 size=N/A time=00:17:01.02 bitrate=N/A speed=14.2x    frame=24675 fps=342 q=-0.0 size=N/A time=00:17:09.15 bitrate=N/A speed=14.2x    frame=24865 fps=342 q=-0.0 size=N/A time=00:17:17.07 bitrate=N/A speed=14.3x    frame=25009 fps=341 q=-0.0 size=N/A time=00:17:23.08 bitrate=N/A speed=14.2x    frame=25196 fps=341 q=-0.0 size=N/A time=00:17:30.88 bitrate=N/A speed=14.2x    frame=25385 fps=342 q=-0.0 size=N/A time=00:17:38.76 bitrate=N/A speed=14.2x    frame=25564 fps=342 q=-0.0 size=N/A time=00:17:46.23 bitrate=N/A speed=14.3x    frame=25753 fps=342 q=-0.0 size=N/A time=00:17:54.11 bitrate=N/A speed=14.3x    frame=25941 fps=342 q=-0.0 size=N/A time=00:18:01.95 bitrate=N/A speed=14.3x    frame=26134 fps=342 q=-0.0 size=N/A time=00:18:10.00 bitrate=N/A speed=14.3x    frame=26324 fps=342 q=-0.0 size=N/A time=00:18:17.93 bitrate=N/A speed=14.3x    frame=26516 fps=343 q=-0.0 size=N/A time=00:18:25.93 bitrate=N/A speed=14.3x    frame=26714 fps=343 q=-0.0 size=N/A time=00:18:34.19 bitrate=N/A speed=14.3x    frame=26905 fps=343 q=-0.0 size=N/A time=00:18:42.16 bitrate=N/A speed=14.3x    frame=27073 fps=343 q=-0.0 size=N/A time=00:18:49.16 bitrate=N/A speed=14.3x    frame=27259 fps=343 q=-0.0 size=N/A time=00:18:56.92 bitrate=N/A speed=14.3x    frame=27394 fps=342 q=-0.0 size=N/A time=00:19:02.55 bitrate=N/A speed=14.3x    frame=27575 fps=342 q=-0.0 size=N/A time=00:19:10.10 bitrate=N/A speed=14.3x    frame=27763 fps=343 q=-0.0 size=N/A time=00:19:17.94 bitrate=N/A speed=14.3x    frame=27941 fps=343 q=-0.0 size=N/A time=00:19:25.37 bitrate=N/A speed=14.3x    frame=28132 fps=343 q=-0.0 size=N/A time=00:19:33.33 bitrate=N/A speed=14.3x    frame=28311 fps=343 q=-0.0 size=N/A time=00:19:40.80 bitrate=N/A speed=14.3x    frame=28480 fps=343 q=-0.0 size=N/A time=00:19:47.85 bitrate=N/A speed=14.3x    frame=28671 fps=343 q=-0.0 size=N/A time=00:19:55.81 bitrate=N/A speed=14.3x    frame=28839 fps=343 q=-0.0 size=N/A time=00:20:02.82 bitrate=N/A speed=14.3x    frame=29002 fps=343 q=-0.0 size=N/A time=00:20:09.62 bitrate=N/A speed=14.3x    frame=29184 fps=343 q=-0.0 size=N/A time=00:20:17.21 bitrate=N/A speed=14.3x    frame=29365 fps=343 q=-0.0 size=N/A time=00:20:24.76 bitrate=N/A speed=14.3x    frame=29519 fps=343 q=-0.0 size=N/A time=00:20:31.18 bitrate=N/A speed=14.3x    frame=29695 fps=343 q=-0.0 size=N/A time=00:20:38.52 bitrate=N/A speed=14.3x    frame=29821 fps=342 q=-0.0 size=N/A time=00:20:43.78 bitrate=N/A speed=14.3x    frame=29978 fps=342 q=-0.0 size=N/A time=00:20:50.33 bitrate=N/A speed=14.3x    frame=30147 fps=342 q=-0.0 size=N/A time=00:20:57.38 bitrate=N/A speed=14.2x    frame=30338 fps=342 q=-0.0 size=N/A time=00:21:05.34 bitrate=N/A speed=14.3x    frame=30527 fps=342 q=-0.0 size=N/A time=00:21:13.23 bitrate=N/A speed=14.3x    frame=30706 fps=342 q=-0.0 size=N/A time=00:21:20.69 bitrate=N/A speed=14.3x    frame=30893 fps=342 q=-0.0 size=N/A time=00:21:28.49 bitrate=N/A speed=14.3x    frame=31081 fps=342 q=-0.0 size=N/A time=00:21:36.33 bitrate=N/A speed=14.3x    frame=31275 fps=342 q=-0.0 size=N/A time=00:21:44.42 bitrate=N/A speed=14.3x    frame=31462 fps=343 q=-0.0 size=N/A time=00:21:52.22 bitrate=N/A speed=14.3x    frame=31645 fps=343 q=-0.0 size=N/A time=00:21:59.86 bitrate=N/A speed=14.3x    frame=31833 fps=343 q=-0.0 size=N/A time=00:22:07.70 bitrate=N/A speed=14.3x    frame=32010 fps=343 q=-0.0 size=N/A time=00:22:15.08 bitrate=N/A speed=14.3x    frame=32159 fps=342 q=-0.0 size=N/A time=00:22:21.29 bitrate=N/A speed=14.3x    frame=32340 fps=342 q=-0.0 size=N/A time=00:22:28.84 bitrate=N/A speed=14.3x    frame=32530 fps=343 q=-0.0 size=N/A time=00:22:36.77 bitrate=N/A speed=14.3x    frame=32682 fps=342 q=-0.0 size=N/A time=00:22:43.11 bitrate=N/A speed=14.3x    frame=32840 fps=342 q=-0.0 size=N/A time=00:22:49.70 bitrate=N/A speed=14.3x    frame=33012 fps=342 q=-0.0 size=N/A time=00:22:56.87 bitrate=N/A speed=14.3x    frame=33180 fps=342 q=-0.0 size=N/A time=00:23:03.88 bitrate=N/A speed=14.3x    frame=33349 fps=342 q=-0.0 size=N/A time=00:23:10.93 bitrate=N/A speed=14.3x    frame=33463 fps=341 q=-0.0 size=N/A time=00:23:15.68 bitrate=N/A speed=14.2x    frame=33578 fps=341 q=-0.0 size=N/A time=00:23:20.48 bitrate=N/A speed=14.2x    frame=33725 fps=340 q=-0.0 size=N/A time=00:23:26.61 bitrate=N/A speed=14.2x    frame=33844 fps=340 q=-0.0 size=N/A time=00:23:31.57 bitrate=N/A speed=14.2x    frame=33981 fps=339 q=-0.0 size=N/A time=00:23:37.29 bitrate=N/A speed=14.2x    frame=34133 fps=339 q=-0.0 size=N/A time=00:23:43.63 bitrate=N/A speed=14.1x    frame=34277 fps=339 q=-0.0 size=N/A time=00:23:49.63 bitrate=N/A speed=14.1x    frame=34401 fps=338 q=-0.0 size=N/A time=00:23:54.80 bitrate=N/A speed=14.1x    frame=34536 fps=338 q=-0.0 size=N/A time=00:24:00.43 bitrate=N/A speed=14.1x    [Parsed_psnr_16 @ 000001f4011c0500] PSNR y:49.641184 u:50.992478 v:51.092286 average:50.059873 min:38.025726 max:inf
[out#0/null @ 000001f473cd8a00] video:14903KiB audio:271276KiB subtitle:0KiB other streams:0KiB global headers:0KiB muxing overhead: unknown
frame=34683 fps=338 q=-0.0 Lsize=N/A time=00:24:06.57 bitrate=N/A speed=14.1x    
